OpenSim_Sub01_CSStiffKnee_LCS.mot
version=1
nRows=39
nColumns=11
inDegrees=no
endheader
time	Bot_Shank	2nd_Bot_Shank	2nd_Top_Shank	Top_Shank	Bot_Thigh	Med_Thigh	Top_Thigh	BNOx	BNOy	BNOZ
13.45000000	9148.43522158	9611.31898648	10398.69438210	10382.93228633	13133.93795699	14173.72755510	14970.82230118	213.99294000	-72.06365823	123.56566331
13.46000000	9161.91545121	9621.13270489	10399.57762639	10389.20041432	13163.05994201	14192.78192889	14996.69858719	213.39840615	-72.86865000	125.01591518
13.47000000	9179.39792934	9633.12226584	10400.10316178	10393.80219594	13189.11339320	14215.35080136	15027.24771965	212.84857326	-73.62488850	126.93294588
13.48000000	9199.82019243	9646.66713753	10400.32987160	10396.97878397	13212.20671894	14240.10002536	15060.78870141	212.34452672	-74.32861835	129.10491976
13.49000000	9222.11200438	9661.14252470	10400.31742050	10398.97514013	13232.45430119	14265.68698158	15095.63029959	211.88726010	-74.97618016	131.31836318
13.50000000	9245.20312910	9675.92363207	10400.12547310	10400.03622613	13249.97052193	14290.76905065	15130.08128133	211.47776698	-75.56391457	133.35980250
13.51000000	9268.02333050	9690.38566436	10399.81369405	10400.40700370	13264.86976311	14314.00361324	15162.45041377	211.11704093	-76.08816218	135.01576411
13.52000000	9289.50237248	9703.90382629	10399.44174796	10400.33243455	13277.26640670	14334.04805001	15191.04646403	210.80607551	-76.54526362	136.07277436
13.53000000	9308.57001895	9715.85332260	10399.06929949	10400.05748040	13287.27483467	14349.55974160	15214.17819925	210.54586430	-76.93155951	136.31735962
13.54000000	9324.26844700	9725.68561994	10398.75051653	10399.80541053	13295.01903668	14359.38018914	15230.37293931	210.33624978	-77.24456409	135.57809971
13.55000000	9336.47063753	9733.41580841	10398.49894271	10399.63917356	13300.69400938	14363.71165895	15239.77324546	210.16856714	-77.49046538	133.99437557
13.56000000	9345.42194015	9739.31159576	10398.30991372	10399.54986192	13304.52657494	14363.36631635	15243.24563491	210.03033858	-77.67933900	131.84487018
13.57000000	9351.36946091	9743.64188136	10398.17867937	10399.52822908	13306.74370564	14359.15920355	15241.66003979	209.90906832	-77.82127895	129.40892356
13.58000000	9354.56030587	9746.67556457	10398.10048948	10399.56502852	13307.57237379	14351.90536275	15235.88639218	209.79226057	-77.92637919	126.96587577
13.59000000	9355.24158111	9748.68154474	10398.07059386	10399.65101371	13307.23955166	14342.41983617	15226.79462421	209.66741957	-78.00473369	124.79506685
13.60000000	9353.66039267	9749.92872124	10398.08424231	10399.77693815	13305.97221156	14331.51766601	15215.25466798	209.52204951	-78.06643643	123.17583684
13.61000000	9350.06384662	9750.68599342	10398.13668467	10399.93355530	13303.99732578	14320.01389448	15202.13645559	209.34365462	-78.12158138	122.38752579
13.62000000	9344.69904903	9751.22226064	10398.22317072	10400.11161864	13301.54186660	14308.72356377	15188.30991916	209.11973912	-78.18026251	122.70947373
13.63000000	9337.81310595	9751.80642227	10398.33895029	10400.30188165	13298.83280632	14298.46171611	15174.64499078	208.83780722	-78.25257380	124.42102072
13.64000000	9329.65312345	9752.70737766	10398.47927320	10400.49509782	13296.09711722	14290.04339370	15162.01160257	208.48536314	-78.34860922	127.80150680
13.65000000	9320.46620758	9754.19402617	10398.63938924	10400.68202061	13293.56177161	14284.28363874	15151.27968663	208.04991110	-78.47846274	133.13027201
13.66000000	9310.49946441	9756.53526717	10398.81454824	10400.85340351	13291.45374177	14281.99749343	15143.31917507	207.51895532	-78.65222835	140.68665640
13.67000000	9300.00000000	9760.00000000	10399	10401	13290	14284.00000000	15139	206.88000000	-78.88000000	150.75000000
13.68000000	9289.22162230	9764.74206665	10399.19058312	10401.10550354	13289.35822503	14290.76592094	15138.91268055	206.12848325	-79.16683661	163.12098059
13.69000000	9278.44494680	9770.45507953	10399.37949133	10401.12536754	13289.40892140	14301.40889994	15142.53008397	205.29157870	-79.49765679	175.68562684
13.70000000	9267.95729088	9776.71759368	10399.55950713	10401.00798540	13289.96330010	14314.70230100	15149.04566455	204.40439384	-79.85234411	185.85130514
13.71000000	9258.04597193	9783.10816414	10399.72341304	10400.70175051	13290.83257211	14329.41948812	15157.65287656	203.50203617	-80.21078212	191.02538188
13.72000000	9248.99830732	9789.20534595	10399.86399155	10400.15505628	13291.82794841	14344.33382528	15167.54517427	202.61961320	-80.55285437	188.61522347
13.73000000	9241.10161443	9794.58769413	10399.97402518	10399.31629610	13292.76064000	14358.21867648	15177.91601198	201.79223243	-80.85844442	176.02819629
13.74000000	9234.60833914	9798.86737589	10400.04713247	10398.14709839	13293.45521186	14369.94441777	15188.00936393	201.05181159	-81.10910313	151.00341805
13.75000000	9229.41092727	9802.00355767	10400.08556289	10396.74572481	13293.87409059	14379.38294028	15197.59075327	200.39733849	-81.30359400	114.70487939
13.76000000	9225.18944392	9804.16011676	10400.09665769	10395.29104331	13294.06103372	14386.99697531	15206.73338899	199.80837400	-81.45083508	70.31706219
13.77000000	9221.62120921	9805.50357634	10400.08782393	10393.96296365	13294.06084999	14393.25689068	15215.51445685	199.26422795	-81.55987563	21.05056287
13.78000000	9218.38354326	9806.20045960	10400.06646867	10392.94139561	13293.91834814	14398.63305421	15224.01114263	198.74421014	-81.63976496	-29.88402215
13.79000000	9215.15376618	9806.41728969	10400.03999895	10392.40624896	13293.67833690	14403.59583373	15232.30063212	198.22763038	-81.69955234	-79.27609647
13.80000000	9211.60919811	9806.32058981	10400.01582186	10392.53743346	13293.38562500	14408.61559704	15240.46011108	197.69379847	-81.74828706	-123.91506364
13.81000000	9207.42715915	9806.07688312	10400.00134444	10393.51485888	13293.08502117	14414.16271197	15248.56676529	197.12202422	-81.79501839	-160.59032727
13.82000000	9202.31894495	9805.84148952	10400.00318916	10395.47910426	13292.81663137	14420.63891582	15256.67126589	196.49337964	-81.84787522	-186.37127931
13.83000000	9196.34660141	9805.65407056	10400.01987870	10398.16471320	13292.57201187	14427.73743086	15264.55055710	195.80712908	-81.90548451	-201.21780400
